<?xml version="1.0" encoding="utf-8"?>
<!-- Generator: Adobe Illustrator 21.0.0, SVG Export Plug-In . SVG Version: 6.00 Build 0)  -->
<svg version="1.1" id="Layer_1" xmlns="http://www.w3.org/2000/svg" xmlns:xlink="http://www.w3.org/1999/xlink" x="0px" y="0px"
	 viewBox="0 0 792 612" style="enable-background:new 0 0 792 612;" xml:space="preserve">
<style type="text/css">
	.st0{fill:none;stroke:#F7931E;stroke-miterlimit:10;}
</style>
<path class="st0" d="M237.8,279.4c4-3.4,9.3-8.5,13.7-15.1c10.1-15.2,9.4-28.6,11.1-28.6c2.8,0,1.8,36.5,9,37.2
	c4.3,0.4,8.4-15.2,16.4-15.1c4.6,0.1,10.1,5.4,8.4,10c-1.7,4.7-10.4,7.5-12.1,6.5c-1.7-0.9,1.1-6.3,5.3-6.9c4.6-0.7,7.7,5,12.1,4.5
	c6.2-0.7,4.3-12,13.7-14.8c5.5-1.6,13,0.3,13.2,1.7c0.3,1.9-12,3.8-11.6,5.2c0.4,1.4,12.8-0.6,15.3,2.4c1.8,2.1-1.8,6.3-6.9,7.9
	c-5.1,1.6-14.2-0.2-14.8-1.7c-1-2.5,20.6-3.2,34.5-11.4c4.6-2.7,5.2-4.4,8.3-4.5c8.2-0.1,17.6,11,12.7,15.1
	c-4.1,3.4-19.6,1-20.1-1.4c-0.3-1.5,7.9-3.9,24.3-8.6c9.2-2.7,9.5-2.4,14.8-4.1c11.2-3.8,14.5-6.4,16.9-5.5
	c3.8,1.5,1.8,10.8-3.2,11.7c-6.5,1.1-16-12.8-18.5-12c-1.7,0.5,0.2,6.9,11.6,26.8"/>
</svg>
